<?xml version="1.0" encoding="UTF-8" standalone="no"?>
<!DOCTYPE svg PUBLIC "-//W3C//DTD SVG 1.1//EN" "http://www.w3.org/Graphics/SVG/1.1/DTD/svg11.dtd">
<svg width="100%" height="100%" viewBox="0 0 1024 1024" version="1.1" xmlns="http://www.w3.org/2000/svg" xmlns:xlink="http://www.w3.org/1999/xlink" xml:space="preserve" xmlns:serif="http://www.serif.com/" style="fill-rule:evenodd;clip-rule:evenodd;stroke-linejoin:round;stroke-miterlimit:2;">
    <g id="Layer1">
        <path d="M897.785,749.42L897.79,749.401C905.988,749.401 912.628,756.041 912.628,764.239C912.628,772.437 905.988,779.077 897.79,779.077L458.806,779.077L344.442,893.441C341.586,896.26 337.802,897.781 333.944,897.781C332.052,897.781 330.123,897.41 328.269,896.668C322.704,894.368 319.106,888.952 319.106,882.943L319.106,833.718C315.767,834.979 312.577,836.389 309.202,837.576C307.607,838.132 305.937,838.429 304.268,838.429C301.226,838.429 298.222,837.502 295.699,835.721C291.767,832.94 289.43,828.414 289.43,823.592C289.319,816.395 289.208,800.63 290.135,779.078L126.21,779.078C118.012,779.078 111.372,772.438 111.372,764.24C111.372,756.042 118.012,749.402 126.21,749.402L291.73,749.402C298.406,634.298 327.085,451.979 437.811,398.971L437.811,259.756C437.811,186.127 497.715,126.219 571.348,126.219C600.579,126.219 628.994,136.346 652.4,154.3C677.182,153.706 719.396,158.232 758.531,188.687C816.362,233.463 822.965,299.455 823.595,318.595C823.781,323.455 821.518,328.092 817.623,330.985C815.026,332.914 811.91,333.916 808.757,333.916C807.162,333.916 805.567,333.656 804.009,333.137C786.612,327.276 769.066,321.489 751.632,315.777C741.505,330.801 724.145,350.276 695.915,362.405C694.914,362.887 693.727,363.221 692.688,363.629C716.131,395.795 730.598,430.071 734.493,465.904C744.056,552.187 696.801,638.989 615.23,701.753C615.452,702.829 615.86,703.793 615.86,704.906L615.86,749.42L897.785,749.42ZM740.325,212.175L740.362,212.173C721.035,197.113 699.46,190.563 681.84,187.224C685.401,192.641 689.69,197.558 692.435,203.419C692.546,203.642 692.583,203.902 692.694,204.124C696.144,211.655 698.667,219.556 700.67,227.643C701.189,229.72 701.671,231.834 702.079,233.949C703.749,242.407 704.899,250.976 704.899,259.767C704.899,262.92 704.862,265.814 704.528,268.818L707.978,269.968C713.541,271.786 719.069,273.566 724.559,275.458C730.828,277.387 737.357,279.65 743.96,281.95L750.08,284.064C763.694,288.442 777.531,293.004 791.367,297.641C786.767,273.752 774.229,238.475 740.325,212.175ZM458.627,421.798L458.558,421.833C346.162,466.095 324.61,676.604 320.53,765.038C319.602,779.838 319.231,792.488 319.083,802.207C322.125,800.983 325.129,799.684 328.134,798.423C363.593,784.179 396.756,768.377 426.914,751.387C432.998,747.9 439.118,744.413 444.979,740.889C454.698,735.288 463.898,729.538 472.8,723.529C568.055,660.654 618.801,591.099 615.871,527.593C615.574,520.545 612.31,465.57 579.666,433.224C574.992,428.586 569.725,424.432 563.79,420.945C561.341,419.535 558.596,418.163 555.629,416.864C554.59,416.419 553.403,416.048 552.327,415.64C550.25,414.824 548.136,414.045 545.836,413.377C544.352,412.932 542.72,412.598 541.125,412.228C538.936,411.708 536.711,411.226 534.336,410.855C532.482,410.558 530.516,410.373 528.55,410.187C526.101,409.965 523.616,409.779 520.982,409.705C518.497,409.631 515.937,409.631 513.304,409.742C511.634,409.816 509.965,409.854 508.259,410.002C505.18,410.224 501.953,410.633 498.689,411.115C496.871,411.374 495.127,411.597 493.236,411.931C489.601,412.599 485.743,413.526 481.848,414.527C480.141,414.973 478.509,415.269 476.729,415.789C470.943,417.421 464.97,419.387 458.627,421.798ZM586.194,749.42L586.194,722.118C570.576,732.097 554.032,741.222 536.561,749.42L586.194,749.42ZM684.052,335.256C701.708,327.689 714.024,316.226 722.222,305.951C719.922,305.21 717.659,304.356 715.323,303.652L699.075,298.31C698.927,298.792 698.63,299.274 698.482,299.794C697.406,303.317 695.885,306.656 694.476,310.069C693.214,313.11 692.213,316.226 690.729,319.157C688.726,323.163 686.315,326.872 683.941,330.619C682.68,332.622 681.678,334.811 680.305,336.777C681.604,336.294 682.828,335.775 684.052,335.256ZM348.793,847.202L348.831,847.239L394.123,801.909C393.826,802.058 393.493,802.169 393.196,802.317C390.673,803.504 387.965,804.58 385.406,805.767C373.424,811.332 361.331,816.896 348.793,822.089L348.793,847.202ZM483.74,359.776L483.74,359.739C479.511,356.029 475.579,352.134 471.833,347.906C470.497,346.385 468.791,345.198 467.53,343.64L467.53,387.56C468.086,387.374 468.531,387.337 469.088,387.189C475.95,385.26 482.442,383.85 488.711,382.738C489.712,382.552 490.825,382.218 491.79,382.07C498.949,380.883 505.663,380.289 512.08,380.03C512.377,379.993 512.748,379.918 513.082,379.918C510.856,378.843 509.001,377.173 506.85,375.986C501.768,373.167 496.834,370.163 492.16,366.713C489.23,364.524 486.485,362.187 483.74,359.776ZM526.29,721.75L526.138,721.822L526.101,721.896L526.29,721.75ZM526.29,721.75C650.606,662.497 714.539,554.901 705.01,469.098C701.077,432.815 684.867,397.909 656.861,365.266C656.638,365.006 656.453,364.783 656.23,364.524C655.934,364.19 655.6,363.893 655.303,363.522C652.743,365.637 650.221,367.603 647.661,369.42C642.135,373.241 636.385,376.58 630.449,379.51C628.446,380.512 626.369,381.142 624.329,382.032C620.285,383.776 616.279,385.556 612.124,386.892C609.676,387.708 607.116,388.153 604.594,388.784C600.736,389.748 596.878,390.824 592.946,391.455C590.127,391.937 587.27,392.048 584.451,392.308C581.298,392.604 578.219,393.161 575.066,393.235C576.364,393.903 577.626,394.608 578.813,395.312C586.269,399.689 592.909,404.808 598.807,410.373C603.815,415.121 608.006,420.351 612.013,425.656C612.717,426.583 613.682,427.399 614.35,428.364C618.653,434.411 622.288,440.754 625.478,447.134C625.627,447.431 625.849,447.69 625.998,447.987C628.854,453.774 631.117,459.561 633.194,465.273C633.528,466.201 634.047,467.128 634.344,468.018C636.384,473.916 637.942,479.592 639.314,485.082C639.463,485.75 639.76,486.492 639.908,487.122C641.169,492.464 642.059,497.397 642.838,502.034C642.95,502.665 643.135,503.444 643.247,504.037C643.951,508.712 644.434,512.718 644.767,516.279C644.805,516.65 644.879,517.169 644.916,517.503C645.138,519.766 645.175,521.139 645.287,522.771C645.324,523.846 645.472,525.442 645.509,526.221L645.509,526.258C645.917,535.012 645.361,543.841 644.137,552.707C643.729,555.526 642.913,558.382 642.356,561.238C641.169,567.286 639.871,573.332 637.942,579.415C636.866,582.828 635.457,586.203 634.158,589.616C632.044,595.18 629.744,600.707 627.036,606.272C625.256,609.87 623.327,613.431 621.324,617.029C618.319,622.445 615.017,627.823 611.419,633.239C609.045,636.8 606.634,640.361 604.037,643.922C599.994,649.45 595.543,654.903 590.943,660.356C588.124,663.694 585.378,667.07 582.337,670.408C576.883,676.381 570.911,682.279 564.79,688.177C561.934,690.922 559.338,693.667 556.333,696.412C546.966,704.968 537.048,713.414 526.29,721.75ZM571.358,155.939L571.358,155.965C514.079,155.965 467.488,202.556 467.488,259.836C467.488,317.115 514.084,363.706 571.358,363.706C592.688,363.706 613.128,357.325 630.562,345.27C635.903,341.412 640.874,336.923 645.622,332.212C660.386,317.189 670.327,297.492 673.628,276.793C673.628,276.682 673.665,276.645 673.665,276.533L673.665,276.459C674.222,273.566 674.63,271.674 674.63,269.597C675.298,264.293 675.223,262.141 675.223,259.804C675.223,229.127 661.795,200.304 638.388,180.644C619.433,164.73 595.655,155.939 571.358,155.939Z" style="stroke:white;stroke-width:2.5px;"/>
        <circle cx="570.267" cy="258.284" r="41.535" style="fill:rgb(1,3,3);stroke:black;stroke-width:17.95px;stroke-linecap:round;stroke-miterlimit:1.5;"/>
        <g transform="matrix(1.409091,0,0,1.363636,-223.85887,-92.444078)">
            <circle cx="573.518" cy="257.201" r="15.892" style="fill:white;"/>
        </g>
        <g transform="matrix(1,0,0,1,2.606658,41.171125)">
            <path d="M485.642,836.962L485.742,789.662L485.642,769.862L498.442,769.862L498.142,786.362L498.942,786.362C500.076,780.228 502.076,775.712 504.942,772.812C507.809,769.912 511.642,768.462 516.442,768.462C522.509,768.462 527.292,770.778 530.792,775.412C534.292,780.045 536.042,786.862 536.042,795.862C536.042,802.262 535.176,807.512 533.442,811.612C531.709,815.712 529.376,818.762 526.442,820.762C523.509,822.762 520.176,823.762 516.442,823.762C511.776,823.762 507.959,822.228 504.992,819.162C502.026,816.095 500.109,811.495 499.242,805.362L498.342,805.362C498.809,808.695 499.226,811.962 499.592,815.162C499.959,818.362 500.142,821.328 500.142,824.062L500.142,836.962L485.642,836.962ZM511.242,811.762C514.642,811.762 517.192,810.262 518.892,807.262C520.592,804.262 521.442,800.628 521.442,796.362C521.442,791.962 520.576,788.278 518.842,785.312C517.109,782.345 514.576,780.862 511.242,780.862C508.042,780.862 505.376,782.212 503.242,784.912C501.109,787.612 500.042,791.328 500.042,796.062L500.042,796.762C500.042,801.228 501.126,804.845 503.292,807.612C505.459,810.378 508.109,811.762 511.242,811.762Z" style="fill-rule:nonzero;"/>
            <path d="M566.942,823.762C560.609,823.762 555.542,822.545 551.742,820.112C547.942,817.678 545.192,814.445 543.492,810.412C541.792,806.378 540.942,801.928 540.942,797.062C540.942,791.995 541.792,787.295 543.492,782.962C545.192,778.628 547.892,775.128 551.592,772.462C555.292,769.795 560.109,768.462 566.042,768.462C571.776,768.462 576.459,769.762 580.092,772.362C583.726,774.962 586.259,778.495 587.692,782.962C589.126,787.428 589.409,792.462 588.542,798.062L554.942,798.562C555.409,808.095 559.476,812.862 567.142,812.862C570.809,812.862 573.342,811.912 574.742,810.012C576.142,808.112 576.776,805.762 576.642,802.962L589.842,803.762C589.976,806.095 589.692,808.428 588.992,810.762C588.292,813.095 587.059,815.245 585.292,817.212C583.526,819.178 581.126,820.762 578.092,821.962C575.059,823.162 571.342,823.762 566.942,823.762ZM566.042,779.962C562.842,779.962 560.392,780.895 558.692,782.762C556.992,784.628 555.876,787.162 555.342,790.362L575.642,790.062C575.376,786.862 574.459,784.378 572.892,782.612C571.326,780.845 569.042,779.962 566.042,779.962Z" style="fill-rule:nonzero;"/>
            <path d="M595.842,822.362L595.842,752.862L609.942,752.862L609.942,790.062C614.809,787.795 618.576,784.762 621.242,780.962C623.909,777.162 625.676,773.462 626.542,769.862L643.042,769.862C642.109,773.262 640.559,776.578 638.392,779.812C636.226,783.045 633.476,785.945 630.142,788.512C626.809,791.078 622.976,793.095 618.642,794.562L618.642,795.362C622.776,794.762 626.176,794.728 628.842,795.262C631.509,795.795 633.642,796.778 635.242,798.212C636.842,799.645 638.076,801.378 638.942,803.412C639.809,805.445 640.476,807.695 640.942,810.162L643.342,822.362L627.742,822.362L626.542,813.762C626.209,811.428 625.726,809.278 625.092,807.312C624.459,805.345 623.342,803.778 621.742,802.612C620.142,801.445 617.742,800.862 614.542,800.862L609.942,800.862L609.942,822.362L595.842,822.362Z" style="fill-rule:nonzero;"/>
            <path d="M670.442,823.762C665.442,823.762 661.009,822.745 657.142,820.712C653.276,818.678 650.242,815.628 648.042,811.562C645.842,807.495 644.742,802.362 644.742,796.162C644.742,789.828 645.876,784.612 648.142,780.512C650.409,776.412 653.492,773.378 657.392,771.412C661.292,769.445 665.676,768.462 670.542,768.462C675.609,768.462 680.076,769.478 683.942,771.512C687.809,773.545 690.826,776.612 692.992,780.712C695.159,784.812 696.242,789.962 696.242,796.162C696.242,802.562 695.109,807.795 692.842,811.862C690.576,815.928 687.492,818.928 683.592,820.862C679.692,822.795 675.309,823.762 670.442,823.762ZM670.742,812.962C674.209,812.962 676.892,811.562 678.792,808.762C680.692,805.962 681.642,802.028 681.642,796.962C681.642,791.562 680.626,787.362 678.592,784.362C676.559,781.362 673.742,779.862 670.142,779.862C666.676,779.862 664.009,781.278 662.142,784.112C660.276,786.945 659.342,790.895 659.342,795.962C659.342,801.362 660.342,805.545 662.342,808.512C664.342,811.478 667.142,812.962 670.742,812.962Z" style="fill-rule:nonzero;"/>
            <path d="M732.642,823.762C725.442,823.762 719.559,822.212 714.992,819.112C710.426,816.012 707.059,811.878 704.892,806.712C702.726,801.545 701.642,795.828 701.642,789.562C701.642,783.095 702.726,777.245 704.892,772.012C707.059,766.778 710.409,762.628 714.942,759.562C719.476,756.495 725.276,754.962 732.342,754.962C738.476,754.962 743.492,756.095 747.392,758.362C751.292,760.628 754.092,763.662 755.792,767.462C757.492,771.262 758.142,775.395 757.742,779.862L744.442,781.562C744.509,777.028 743.459,773.462 741.292,770.862C739.126,768.262 736.009,766.962 731.942,766.962C727.209,766.962 723.492,768.812 720.792,772.512C718.092,776.212 716.742,781.695 716.742,788.962C716.742,796.028 718.092,801.595 720.792,805.662C723.492,809.728 727.542,811.762 732.942,811.762C737.809,811.762 741.276,810.145 743.342,806.912C745.409,803.678 746.309,799.495 746.042,794.362L759.642,795.662C760.042,800.595 759.392,805.195 757.692,809.462C755.992,813.728 753.092,817.178 748.992,819.812C744.892,822.445 739.442,823.762 732.642,823.762Z" style="fill-rule:nonzero;"/>
            <path d="M765.942,822.362L765.942,756.362L787.742,756.362L802.642,805.562L802.842,805.562L817.542,756.362L838.242,756.362L838.242,822.362L824.842,822.362L824.842,770.862L824.642,770.862L808.542,822.362L795.442,822.362L779.642,770.862L779.442,770.862L779.442,822.362L765.942,822.362Z" style="fill-rule:nonzero;"/>
            <path d="M872.242,823.762C863.176,823.762 856.309,821.745 851.642,817.712C846.976,813.678 844.776,808.095 845.042,800.962L858.542,798.062C858.609,803.062 860.009,806.612 862.742,808.712C865.476,810.812 868.842,811.862 872.842,811.862C876.309,811.862 879.142,811.228 881.342,809.962C883.542,808.695 884.642,806.928 884.642,804.662C884.642,802.795 883.976,801.295 882.642,800.162C881.309,799.028 879.526,798.078 877.292,797.312C875.059,796.545 872.576,795.828 869.842,795.162C866.976,794.362 864.126,793.495 861.292,792.562C858.459,791.628 855.876,790.428 853.542,788.962C851.209,787.495 849.326,785.628 847.892,783.362C846.459,781.095 845.742,778.228 845.742,774.762C845.742,770.628 846.809,767.095 848.942,764.162C851.076,761.228 854.009,758.962 857.742,757.362C861.476,755.762 865.809,754.962 870.742,754.962C875.876,754.962 880.426,755.828 884.392,757.562C888.359,759.295 891.409,761.828 893.542,765.162C895.676,768.495 896.542,772.562 896.142,777.362L882.842,779.562C883.109,775.428 882.126,772.228 879.892,769.962C877.659,767.695 874.442,766.562 870.242,766.562C866.842,766.562 864.242,767.245 862.442,768.612C860.642,769.978 859.742,771.728 859.742,773.862C859.742,776.395 861.076,778.245 863.742,779.412C866.409,780.578 869.842,781.695 874.042,782.762C876.909,783.562 879.792,784.428 882.692,785.362C885.592,786.295 888.259,787.528 890.692,789.062C893.126,790.595 895.076,792.562 896.542,794.962C898.009,797.362 898.742,800.428 898.742,804.162C898.742,808.428 897.626,812.028 895.392,814.962C893.159,817.895 890.042,820.095 886.042,821.562C882.042,823.028 877.442,823.762 872.242,823.762Z" style="fill-rule:nonzero;"/>
        </g>
    </g>
</svg>
